<?xml version="1.0" encoding="iso-8859-1"?>
<!-- Generator: Adobe Illustrator 18.0.0, SVG Export Plug-In . SVG Version: 6.00 Build 0)  -->
<!DOCTYPE svg PUBLIC "-//W3C//DTD SVG 1.1//EN" "http://www.w3.org/Graphics/SVG/1.1/DTD/svg11.dtd">
<svg version="1.1" id="Capa_1" xmlns="http://www.w3.org/2000/svg" xmlns:xlink="http://www.w3.org/1999/xlink" x="0px" y="0px"
	 viewBox="0 0 340.253 340.253" style="enable-background:new 0 0 340.253 340.253;" xml:space="preserve">
<g>
	<path style="fill:#7CCFED;" d="M340.253,170.122c0,77.67-52.03,143.18-123.15,163.56c-5.31,1.52-10.72,2.79-16.22,3.79
		c-9.98,1.83-20.25,2.78-30.75,2.78c-5.91,0-11.74-0.3-17.49-0.89c-10.12-1.03-19.97-2.95-29.48-5.68
		c-0.88-0.25-1.76-0.51-2.64-0.79c-11.25-3.42-22-7.98-32.13-13.54c-40.95-22.46-71.64-61.29-83.27-107.68
		c-1.95-7.73-3.36-15.66-4.2-23.77c-0.61-5.84-0.92-11.78-0.92-17.78c0-1.86,0.03-3.7,0.09-5.55
		c2.55-79.7,59.94-145.56,135.67-161.09c11.1-2.28,22.6-3.48,34.37-3.48c24.09,0,47.01,5.01,67.77,14.04
		C298.134,40.222,340.253,100.262,340.253,170.122z"/>
	<polygon style="fill:#7C5228;" points="200.88,213.361 200.88,113.282 163.397,126.282 163.397,201.948 	"/>
	<path style="fill:#666666;" d="M307.39,130.591h-37.01l-112-18.33L5.12,211.671c-1.95-7.73-3.36-15.66-4.2-23.77
		c-0.61-5.84-0.92-11.78-0.92-17.78c0-1.86,0.03-3.7,0.09-5.55l2.81-2.15c15.53-11.9,28.2-27.45,36.64-44.97
		c13.95-29.01,35.68-53.55,62.83-70.97c27.9-17.91,60.25-27.37,93.54-27.37C257.38,19.111,307.39,69.121,307.39,130.591z"/>
	<path style="fill:#B27538;" d="M195.91,39.111c-60.94,0-113.59,35.53-138.35,87.01c-10.01,20.8-24.69,38.54-42.5,52.18
		c-4.52,3.47-9.24,6.68-14.14,9.6c7.14,68.81,55.29,125.43,119.6,144.99c8.13-2.88,15.87-6.61,23.09-11.08
		c34.37-21.26,57.27-59.3,57.27-102.69v-5.76c-13.72-10.03-22.91-29.13-22.91-46.21v-43.35l3.56,42.52
		c1.98,23.57,19.51,42.9,42.78,47.17v13.92c0,17.42,14.12,31.54,31.54,31.54h31.54v-128.36
		C287.39,80.071,246.43,39.111,195.91,39.111z"/>
	<path style="fill:#4D4D4D;" d="M272.588,172.165L272.588,172.165c-10.056,0-18.208-8.152-18.208-18.208v0h0
		C264.436,153.957,272.588,162.109,272.588,172.165L272.588,172.165z"/>
	<path style="fill:#4D4D4D;" d="M279.027,249.415c0-4.776-3.871-8.647-8.647-8.647s-8.647,3.872-8.647,8.647"/>
	<path style="fill:#666666;" d="M261.72,53.201c-8.799,20.264-32.358,29.558-52.622,20.759s-29.558-32.358-20.759-52.622"/>
	<path style="fill:#B27538;" d="M243.377,95.555L243.377,95.555c30.409,0,55.061-24.652,55.061-55.061v0h0
		C268.028,40.494,243.377,65.145,243.377,95.555L243.377,95.555z"/>
	<path style="fill:#7C5228;" d="M253.127,85.805L253.127,85.805c15.052,0,27.253-12.202,27.253-27.253v0h0
		C265.328,58.551,253.127,70.753,253.127,85.805L253.127,85.805z"/>
	<path style="fill:#666666;" d="M185.093,39.491L185.093,39.491c0,70.047-56.784,126.831-126.831,126.831H22.639l30.424-51.373
		l43.333-48l72-32.667"/>
</g>
<g>
</g>
<g>
</g>
<g>
</g>
<g>
</g>
<g>
</g>
<g>
</g>
<g>
</g>
<g>
</g>
<g>
</g>
<g>
</g>
<g>
</g>
<g>
</g>
<g>
</g>
<g>
</g>
<g>
</g>
</svg>
